<?xml version="1.0" encoding="utf-8"?>
<!-- Generator: Adobe Illustrator 27.9.0, SVG Export Plug-In . SVG Version: 6.00 Build 0)  -->
<svg version="1.1" id="Calque_1" xmlns="http://www.w3.org/2000/svg" xmlns:xlink="http://www.w3.org/1999/xlink" x="0px" y="0px"
	 viewBox="0 0 57.2 57.7" style="enable-background:new 0 0 57.2 57.7;" xml:space="preserve">
<style type="text/css">
	.st0{fill:#FF0101;}
	.st1{fill:#020203;}
</style>
<g>
	<path class="st0" d="M57.2,28.8c0,15.9-12.8,28.9-28.6,28.9c-6.8,0-13-2.4-17.9-6.4c-1.2-1-2.4-2.1-3.5-3.3C2.7,42.9,0,36.2,0,28.8
		C0,12.9,12.8,0,28.6,0S57.2,12.9,57.2,28.8z"/>
	<path class="st0" d="M57.2,28.8c0,15.9-12.8,28.9-28.6,28.9c-6.8,0-13-2.4-17.9-6.4c-1.2-1-2.4-2.1-3.5-3.3C2.7,42.9,0,36.2,0,28.8
		C0,12.9,12.8,0,28.6,0S57.2,12.9,57.2,28.8z"/>
	<path class="st1" d="M40.9,16.4c2.6,0,4.8-2.2,4.8-4.8c0-2.7-2.1-4.8-4.8-4.8s-4.8,2.2-4.8,4.8C36.1,14.3,38.3,16.4,40.9,16.4z"/>
	<path d="M50.6,24.8L42,30c-0.3,0.2-0.6,0.3-1,0.3c-0.6,0-1.2-0.3-1.5-0.8l-3.8-6l-6.1,9.6l6.7,1.6c0.8,0.1,1.3,0.6,1.6,1.3
		c0.2,0.7,0.2,1.5-0.3,2.2l-7.7,12.2c-0.7,1-2,1.3-3,0.7c-1.1-0.6-1.5-2-0.9-3.2l6-9.5l-8.7-2L10.7,51.3c-1.2-1-2.4-2.1-3.5-3.3
		l13.3-15.9l9.2-14.3L24.4,15l-7.7,7c-0.7,0.7-1.8,0.6-2.5-0.1s-0.6-1.8,0.1-2.5l8.5-7.8c0.6-0.5,1.3-0.6,2-0.2L35,16.6
		c1.1,0.8,2.1,1.8,3.1,2.7l3.5,6.8l7.2-4.3c0.8-0.5,1.9-0.3,2.5,0.6C51.7,23.1,51.5,24.3,50.6,24.8z"/>
</g>
</svg>
