<?xml version="1.0" encoding="utf-8"?>
<!-- Generator: Adobe Illustrator 27.9.0, SVG Export Plug-In . SVG Version: 6.00 Build 0)  -->
<svg version="1.1" id="Calque_1" xmlns="http://www.w3.org/2000/svg" xmlns:xlink="http://www.w3.org/1999/xlink" x="0px" y="0px"
	 viewBox="0 0 20 18.8" style="enable-background:new 0 0 20 18.8;" xml:space="preserve">
<style type="text/css">
	.st0{fill:#FD5181;}
	.st1{fill-rule:evenodd;clip-rule:evenodd;fill:#FD5181;}
</style>
<g>
	<path class="st0" d="M1.2,15c0,2.1,1.6,3.8,3.8,3.8h10c2.1,0,3.8-1.6,3.8-3.8H1.2z"/>
	<path class="st0" d="M18.8,12.5H1.2C0.5,12.5,0,12,0,11.2S0.5,10,1.2,10h17.5c0.8,0,1.2,0.5,1.2,1.2S19.5,12.5,18.8,12.5z"/>
	<path class="st1" d="M11.2,0H8.8C4.6,0,1.2,3.4,1.2,7.5h17.5C18.8,3.4,15.4,0,11.2,0z M7.5,5C6.8,5,6.2,4.5,6.2,3.8
		s0.5-1.2,1.2-1.2S8.8,3,8.8,3.8S8.2,5,7.5,5z M12.5,5c0,0.8,0.5,1.2,1.2,1.2S15,5.8,15,5s-0.5-1.2-1.2-1.2S12.5,4.2,12.5,5z"/>
</g>
</svg>
