<?xml version="1.0" encoding="utf-8"?>
<!-- Generator: Adobe Illustrator 27.9.0, SVG Export Plug-In . SVG Version: 6.00 Build 0)  -->
<svg version="1.1" id="Calque_1" xmlns="http://www.w3.org/2000/svg" xmlns:xlink="http://www.w3.org/1999/xlink" x="0px" y="0px"
	 viewBox="0 0 18.8 18.7" style="enable-background:new 0 0 18.8 18.7;" xml:space="preserve">
<style type="text/css">
	.st0{fill:#4AB8FF;}
</style>
<path class="st0" d="M18.2,2.4c-0.4-0.4-0.8-0.6-1.2-0.6c-0.1-0.5-0.2-0.8-0.6-1.2c-0.8-0.8-2.2-0.8-3.1,0c-0.7,0.7-0.8,1.9-0.2,2.7
	l-2.6,2.5L9.3,4.5L6.7,7.1C6.5,7,6.1,7,5.9,7C2.6,7,0,9.6,0,12.9c0,3.3,2.6,5.9,5.9,5.9c3.3,0,5.9-2.6,5.9-5.9c0-0.2,0-0.6-0.1-0.8
	l2.6-2.6l-1.3-1.3l2.5-2.5c0.8,0.6,2,0.5,2.7-0.2C19.1,4.6,19.1,3.2,18.2,2.4z"/>
</svg>
