<?xml version="1.0" encoding="utf-8"?>
<!-- Generator: Adobe Illustrator 27.9.0, SVG Export Plug-In . SVG Version: 6.00 Build 0)  -->
<svg version="1.1" id="Calque_1" xmlns="http://www.w3.org/2000/svg" xmlns:xlink="http://www.w3.org/1999/xlink" x="0px" y="0px"
	 viewBox="0 0 26.7 24" style="enable-background:new 0 0 26.7 24;" xml:space="preserve">
<style type="text/css">
	.st0{fill:#FF0101;}
</style>
<g>
	<path class="st0" d="M10.7,6.7L6.3,11c0.4,0.2,0.7,0.4,1,0.5C7.9,11.8,8.1,12,8.9,12c0.7,0,1-0.2,1.5-0.5c0.6-0.4,1.4-0.9,2.9-0.9
		s2.3,0.5,2.9,0.9c0.5,0.3,0.8,0.5,1.5,0.5c0.7,0,1-0.2,1.5-0.5c0.2-0.1,0.3-0.2,0.5-0.3l-8.6-8.5C9.2,0.6,7.3,0,4,0v3.3
		c2.4,0,3.9,0.5,5.3,2L10.7,6.7z M26.7,18L26.7,18L26.7,18z M4.5,16.7c0.7,0,1,0.2,1.5,0.5C6.6,17.5,7.4,18,8.9,18
		c1.5,0,2.3-0.5,2.9-0.9c0.5-0.3,0.8-0.5,1.5-0.5c0.7,0,1,0.2,1.5,0.5c0.6,0.4,1.4,0.9,2.9,0.9s2.3-0.5,2.9-0.9
		c0.5-0.3,0.8-0.5,1.5-0.5c0.7,0,1,0.2,1.5,0.5c0.6,0.4,1.4,0.8,2.9,0.9v-2.7c-0.7,0-1-0.2-1.5-0.5c-0.6-0.4-1.4-0.9-2.9-0.9
		c-1.5,0-2.3,0.5-2.9,0.9c-0.5,0.3-0.8,0.5-1.5,0.5c-0.7,0-1-0.2-1.5-0.5c-0.6-0.4-1.4-0.9-2.9-0.9s-2.3,0.5-2.9,0.9
		c-0.5,0.3-0.8,0.5-1.5,0.5c-0.7,0-1-0.2-1.5-0.5C6.7,14.5,5.9,14,4.4,14s-2.3,0.5-2.9,0.9C1,15.2,0.7,15.3,0,15.3V18
		c1.5,0,2.3-0.5,2.9-0.9C3.4,16.8,3.7,16.7,4.5,16.7z M22.2,20c-1.5,0-2.3,0.5-2.9,0.9c-0.5,0.3-0.8,0.5-1.5,0.5
		c-0.7,0-1-0.2-1.5-0.5c-0.6-0.4-1.4-0.9-2.9-0.9s-2.3,0.5-2.9,0.9c-0.5,0.3-0.8,0.5-1.5,0.5c-0.7,0-1-0.2-1.5-0.5
		C6.8,20.5,5.9,20,4.5,20s-2.3,0.5-2.9,0.9C1,21.2,0.7,21.3,0,21.3V24c1.5,0,2.3-0.5,2.9-0.9c0.5-0.3,0.8-0.5,1.5-0.5s1,0.2,1.5,0.5
		C6.6,23.5,7.4,24,8.9,24c1.5,0,2.3-0.5,2.9-0.9c0.5-0.3,0.8-0.5,1.5-0.5c0.7,0,1,0.2,1.5,0.5c0.6,0.4,1.4,0.9,2.9,0.9
		s2.3-0.5,2.9-0.9c0.5-0.3,0.8-0.5,1.5-0.5c0.7,0,1,0.2,1.5,0.5c0.6,0.4,1.4,0.9,2.9,0.9v-2.7c-0.7,0-1-0.2-1.5-0.5
		C24.5,20.5,23.7,20,22.2,20z"/>
	<path class="st0" d="M19.3,6.7c1.8,0,3.3-1.5,3.3-3.3S21.2,0,19.3,0C17.5,0,16,1.5,16,3.3S17.5,6.7,19.3,6.7z"/>
</g>
</svg>
