<?xml version="1.0" encoding="utf-8"?>
<!-- Generator: Adobe Illustrator 27.9.0, SVG Export Plug-In . SVG Version: 6.00 Build 0)  -->
<svg version="1.1" id="Calque_1" xmlns="http://www.w3.org/2000/svg" xmlns:xlink="http://www.w3.org/1999/xlink" x="0px" y="0px"
	 viewBox="0 0 16.8 20.1" style="enable-background:new 0 0 16.8 20.1;" xml:space="preserve">
<style type="text/css">
	.st0{fill:#FDCC0C;}
</style>
<g>
	<path class="st0" d="M15.8,15.1c-0.4,1-0.6,1.4-1.2,2.2c-0.8,1.2-1.9,2.7-3.2,2.7c-1.2,0-1.5-0.8-3.2-0.8c-1.6,0-2,0.8-3.2,0.8
		c-1.4,0-2.4-1.3-3.2-2.5c-2.2-3.3-2.4-7.2-1.1-9.2c1-1.5,2.5-2.3,3.9-2.3c1.4,0,2.3,0.8,3.5,0.8c1.2,0,1.9-0.8,3.5-0.8
		c1.3,0,2.6,0.7,3.5,1.9C12.2,9.5,12.7,13.9,15.8,15.1z"/>
	<path class="st0" d="M1,15.1c0.4,1,0.6,1.4,1.2,2.2C3,18.5,4.1,20,5.4,20c1.2,0,1.5-0.8,3.2-0.8c1.6,0,2,0.8,3.2,0.8
		c1.4,0,2.4-1.3,3.2-2.5c2.2-3.3,2.4-7.2,1.1-9.2c-1-1.5-2.5-2.3-3.9-2.3c-1.4,0-2.3,0.8-3.5,0.8c-1.2,0-1.9-0.8-3.5-0.8
		c-1.3,0-2.6,0.7-3.5,1.9C4.6,9.5,4.1,13.9,1,15.1z"/>
	<path class="st0" d="M11.2,3.4c0.7-0.9,1.2-2.1,1-3.4C11.1,0.1,9.8,0.8,9,1.7C8.3,2.5,7.7,3.8,8,5C9.2,5,10.4,4.3,11.2,3.4z"/>
</g>
</svg>
