<?xml version="1.0" encoding="utf-8"?>
<!-- Generator: Adobe Illustrator 27.9.0, SVG Export Plug-In . SVG Version: 6.00 Build 0)  -->
<svg version="1.1" id="Calque_1" xmlns="http://www.w3.org/2000/svg" xmlns:xlink="http://www.w3.org/1999/xlink" x="0px" y="0px"
	 viewBox="0 0 37.5 32" style="enable-background:new 0 0 37.5 32;" xml:space="preserve">
<style type="text/css">
	.st0{fill:#FF0101;}
</style>
<path class="st0" d="M24.2,6.2c1.7,0,3.1-1.4,3.1-3.1S25.9,0,24.2,0s-3.1,1.4-3.1,3.1S22.5,6.2,24.2,6.2z M7.8,16.4
	c-4.4,0-7.8,3.4-7.8,7.8C0,28.6,3.4,32,7.8,32c4.4,0,7.8-3.4,7.8-7.8C15.6,19.8,12.2,16.4,7.8,16.4z M7.8,29.7c-3,0-5.5-2.5-5.5-5.5
	c0-3,2.5-5.5,5.5-5.5c3,0,5.5,2.5,5.5,5.5C13.3,27.2,10.8,29.7,7.8,29.7z M16.9,14l3.7-3.7l1.2,1.2c2,2,4.7,3.3,8,3.3v-3.1
	c-2.3,0-4.2-0.9-5.6-2.3l-3-3c-0.8-0.6-1.6-0.9-2.5-0.9c-0.9,0-1.7,0.3-2.2,0.9l-4.4,4.4c-0.6,0.6-0.9,1.4-0.9,2.2
	c0,0.9,0.3,1.7,0.9,2.2l5,4.4v7.8h3.1v-9.7L16.9,14z M29.7,16.4c-4.4,0-7.8,3.4-7.8,7.8c0,4.4,3.4,7.8,7.8,7.8
	c4.4,0,7.8-3.4,7.8-7.8C37.5,19.8,34,16.4,29.7,16.4z M29.7,29.7c-3,0-5.5-2.5-5.5-5.5c0-3,2.5-5.5,5.5-5.5c3,0,5.5,2.5,5.5,5.5
	C35.1,27.2,32.6,29.7,29.7,29.7z"/>
</svg>
