<?xml version="1.0" encoding="utf-8"?>
<!-- Generator: Adobe Illustrator 27.9.0, SVG Export Plug-In . SVG Version: 6.00 Build 0)  -->
<svg version="1.1" id="Calque_1" xmlns="http://www.w3.org/2000/svg" xmlns:xlink="http://www.w3.org/1999/xlink" x="0px" y="0px"
	 viewBox="0 0 36 32" style="enable-background:new 0 0 36 32;" xml:space="preserve">
<style type="text/css">
	.st0{fill:#FF0101;}
</style>
<g>
	<path class="st0" d="M18,8c2.2,0,4-1.8,4-4s-1.8-4-4-4s-4,1.8-4,4S15.8,8,18,8z"/>
	<path class="st0" d="M36,24v-4c-4.5,0-8.3-1.9-11.2-5.4l-2.7-3.2c-0.8-0.9-1.9-1.4-3.1-1.4H17c-1.2,0-2.3,0.5-3.1,1.4l-2.7,3.2
		C8.3,18.1,4.5,20,0,20v4c5.5,0,10.4-2.3,14-6.5V22l-7.8,3.1C4.9,25.6,4,27,4,28.4c0,2,1.6,3.6,3.6,3.6H12v-1c0-2.8,2.2-5,5-5h6
		c0.6,0,1,0.4,1,1s-0.4,1-1,1h-6c-1.7,0-3,1.3-3,3v1h14.4c2,0,3.6-1.6,3.6-3.6c0-1.5-0.9-2.8-2.2-3.3L22,22v-4.5
		C25.6,21.7,30.5,24,36,24z"/>
</g>
</svg>
