<?xml version="1.0" encoding="utf-8"?>
<!-- Generator: Adobe Illustrator 27.9.0, SVG Export Plug-In . SVG Version: 6.00 Build 0)  -->
<svg version="1.1" id="Calque_1" xmlns="http://www.w3.org/2000/svg" xmlns:xlink="http://www.w3.org/1999/xlink" x="0px" y="0px"
	 viewBox="0 0 15.8 20" style="enable-background:new 0 0 15.8 20;" xml:space="preserve">
<style type="text/css">
	.st0{fill:#FF0000;}
</style>
<path class="st0" d="M10.1,7.9c0,0,0.9-5.5-2.9-7.9c-0.1,1.9-1,3.7-2.5,4.9C3,6.3,0,9.5,0,12.9c0,3,1.6,5.7,4.3,7.1
	c0.1-1.3,0.7-2.6,1.7-3.4c0.9-0.7,1.4-1.6,1.6-2.7c2.3,1.2,3.7,3.5,3.9,6.1v0c2.5-1.2,4.2-3.6,4.3-6.4c0.3-3.2-1.5-7.6-3.1-9
	C12.1,5.9,11.2,7,10.1,7.9z"/>
</svg>
