<?xml version="1.0" encoding="utf-8"?>
<!-- Generator: Adobe Illustrator 27.9.0, SVG Export Plug-In . SVG Version: 6.00 Build 0)  -->
<svg version="1.1" id="Calque_1" xmlns="http://www.w3.org/2000/svg" xmlns:xlink="http://www.w3.org/1999/xlink" x="0px" y="0px"
	 viewBox="0 0 177 57.7" style="enable-background:new 0 0 177 57.7;" xml:space="preserve">
<style type="text/css">
	.st0{fill:#FF0101;}
	.st1{fill:#E60000;}
	.st2{fill:#020203;}
</style>
<g>
	<path class="st0" d="M57.2,28.8c0,15.9-12.8,28.9-28.6,28.9c-6.8,0-13-2.4-17.9-6.4c-1.2-1-2.4-2.1-3.5-3.3C2.7,42.9,0,36.2,0,28.8
		C0,12.9,12.8,0,28.6,0C44.4,0,57.2,12.9,57.2,28.8z"/>
	<path class="st1" d="M71.3,37.6c-1.1-0.5-1.9-1.3-2.6-2.2c-0.6-1-0.9-2-1-3.3h3c0.1,1.1,0.6,2,1.3,2.7c0.8,0.7,1.9,1,3.1,1
		c1.1,0,2-0.3,2.7-0.7c0.7-0.5,1.1-1.1,1.1-2c0-0.6-0.2-1.1-0.6-1.5c-0.4-0.4-0.9-0.6-1.5-0.8c-0.6-0.2-1.6-0.4-2.8-0.6h-0.1
		c-1.1-0.2-2.1-0.4-3-0.8c-0.8-0.4-1.5-0.9-2.1-1.6c-0.5-0.7-0.8-1.6-0.8-2.8c0-1.1,0.3-2,0.8-2.9c0.6-0.8,1.3-1.5,2.3-2
		c1-0.4,2.1-0.7,3.4-0.7c1.3,0,2.5,0.3,3.5,0.8c1.1,0.5,1.9,1.1,2.5,2c0.6,0.9,0.9,1.9,0.9,3h-3c-0.1-1-0.6-1.7-1.3-2.3
		c-0.7-0.6-1.6-0.9-2.7-0.9c-1.1,0-1.9,0.3-2.6,0.7c-0.6,0.4-0.9,1.1-0.9,2c0,0.6,0.2,1.1,0.6,1.5c0.4,0.3,0.9,0.6,1.5,0.8
		c0.6,0.2,1.5,0.4,2.7,0.6c1.2,0.2,2.2,0.5,3.1,0.8c0.9,0.3,1.6,0.9,2.1,1.6c0.6,0.7,0.8,1.6,0.8,2.8c0,1.1-0.3,2-0.9,2.9
		c-0.6,0.9-1.4,1.5-2.5,2c-1.1,0.5-2.2,0.7-3.5,0.7C73.7,38.4,72.3,38.1,71.3,37.6z"/>
	<path class="st1" d="M94.9,25.3c0.9,0.6,1.7,1.3,2.3,2.4c0.6,1.1,0.8,2.3,0.8,3.7c0,1.4-0.3,2.6-0.8,3.6c-0.6,1.1-1.3,1.9-2.3,2.5
		c-0.9,0.6-2.1,0.9-3.3,0.9c-1.2,0-2.2-0.3-3-0.8c-0.8-0.5-1.4-1.2-1.8-2l0.4-0.6v8.6h-2.8v-19h2.5l0.6,3.4l-0.6-0.6
		c0.5-0.8,1.1-1.5,1.9-2.1c0.8-0.5,1.8-0.8,3-0.8C92.8,24.4,93.8,24.7,94.9,25.3z M89,27.4c-0.6,0.4-1.1,0.9-1.4,1.6
		s-0.5,1.5-0.5,2.3c0,0.9,0.2,1.7,0.5,2.4c0.3,0.7,0.8,1.2,1.4,1.6c0.6,0.4,1.3,0.6,2.1,0.6c0.8,0,1.4-0.2,2.1-0.6
		c0.6-0.4,1.1-1,1.4-1.6c0.3-0.7,0.5-1.5,0.5-2.3c0-0.9-0.2-1.6-0.5-2.3c-0.3-0.7-0.8-1.2-1.4-1.6c-0.6-0.4-1.3-0.6-2.1-0.6
		C90.3,26.8,89.6,27,89,27.4z"/>
	<path class="st1" d="M103,37.5c-1.1-0.6-1.9-1.4-2.5-2.5c-0.6-1.1-0.9-2.3-0.9-3.6c0-1.4,0.3-2.6,0.9-3.7c0.6-1.1,1.4-1.8,2.5-2.4
		c1.1-0.6,2.3-0.9,3.6-0.9c1.4,0,2.6,0.3,3.6,0.9c1.1,0.6,1.9,1.4,2.5,2.4c0.6,1.1,0.9,2.3,0.9,3.7c0,1.4-0.3,2.6-0.9,3.7
		c-0.6,1.1-1.4,1.8-2.5,2.5c-1.1,0.6-2.3,0.9-3.6,0.9C105.2,38.4,104,38.1,103,37.5z M108.7,35.3c0.6-0.4,1.1-0.9,1.4-1.6
		c0.3-0.7,0.5-1.5,0.5-2.3c0-0.9-0.2-1.6-0.5-2.3c-0.3-0.7-0.8-1.2-1.4-1.6c-0.6-0.4-1.3-0.6-2.1-0.6c-0.8,0-1.5,0.2-2.1,0.6
		c-0.6,0.4-1.1,0.9-1.4,1.6c-0.3,0.7-0.5,1.5-0.5,2.3c0,0.9,0.2,1.6,0.5,2.3c0.3,0.7,0.8,1.2,1.4,1.6c0.6,0.4,1.3,0.6,2.1,0.6
		C107.4,35.9,108.1,35.7,108.7,35.3z"/>
	<path class="st1" d="M118.3,24.6l0.5,3.4l-0.6-0.6c0.4-0.8,0.9-1.5,1.6-2c0.6-0.5,1.6-0.7,2.8-0.7h0.6v2.7h-1.3
		c-1.2,0-2,0.4-2.6,1.1c-0.5,0.8-0.8,1.8-0.8,3v6.8h-2.8V24.6H118.3z"/>
	<path class="st1" d="M125.1,20.7h2.8v3.8h3.3V27h-3.3v7.1c0,0.6,0.1,1,0.3,1.1c0.2,0.3,0.6,0.3,1.1,0.3h2.2v2.5h-2.8
		c-1.3,0-2.2-0.3-2.8-0.9c-0.6-0.6-0.9-1.5-0.9-2.8V20.7z"/>
	<path class="st1" d="M136.2,37.6c-1.1-0.5-1.9-1.3-2.6-2.2c-0.6-1-0.9-2-1-3.3h3c0.1,1.1,0.6,2,1.3,2.7c0.8,0.7,1.9,1,3.1,1
		c1.1,0,2-0.3,2.7-0.7c0.7-0.5,1.1-1.1,1.1-2c0-0.6-0.2-1.1-0.6-1.5c-0.4-0.4-0.9-0.6-1.5-0.8c-0.6-0.2-1.6-0.4-2.8-0.6h-0.1
		c-1.1-0.2-2.1-0.4-3-0.8c-0.8-0.4-1.5-0.9-2.1-1.6c-0.5-0.7-0.8-1.6-0.8-2.8c0-1.1,0.3-2,0.8-2.9c0.6-0.8,1.3-1.5,2.3-2
		c1-0.4,2.1-0.7,3.4-0.7c1.3,0,2.5,0.3,3.5,0.8c1.1,0.5,1.9,1.1,2.5,2c0.6,0.9,0.9,1.9,0.9,3h-3c-0.1-1-0.6-1.7-1.3-2.3
		c-0.7-0.6-1.6-0.9-2.7-0.9c-1.1,0-1.9,0.3-2.6,0.7c-0.6,0.4-0.9,1.1-0.9,2c0,0.6,0.2,1.1,0.6,1.5c0.4,0.3,0.9,0.6,1.5,0.8
		c0.6,0.2,1.5,0.4,2.7,0.6c1.2,0.2,2.2,0.5,3.1,0.8c0.9,0.3,1.6,0.9,2.1,1.6c0.6,0.7,0.8,1.6,0.8,2.8c0,1.1-0.3,2-0.9,2.9
		c-0.6,0.9-1.4,1.5-2.5,2c-1.1,0.5-2.2,0.7-3.5,0.7C138.6,38.4,137.3,38.1,136.2,37.6z"/>
	<path class="st1" d="M152,37.5c-1.1-0.6-1.9-1.4-2.5-2.4c-0.6-1.1-0.9-2.3-0.9-3.7c0-1.4,0.3-2.7,0.8-3.7c0.6-1,1.3-1.8,2.3-2.4
		c1-0.6,2.1-0.9,3.5-0.9c1.3,0,2.5,0.3,3.5,0.8c1,0.5,1.8,1.3,2.3,2.3c0.6,1,0.9,2.2,0.9,3.4c0,0.2,0,0.3,0,0.5c0,0.2,0,0.4-0.1,0.6
		h-10.2c0,0.1,0,0.1,0,0.1v0.1c0.1,0.8,0.2,1.5,0.5,2c0.3,0.6,0.8,1,1.3,1.3c0.6,0.3,1.2,0.5,1.9,0.5c0.9,0,1.6-0.2,2.2-0.6
		c0.6-0.4,1-1,1.2-1.8h2.9c-0.2,0.9-0.5,1.7-1.1,2.4c-0.6,0.7-1.3,1.3-2.1,1.7c-0.9,0.4-1.8,0.6-2.9,0.6
		C154.3,38.4,153.1,38.1,152,37.5z M153.7,27.2c-0.5,0.3-0.9,0.6-1.3,1.1c-0.3,0.5-0.6,1-0.6,1.6h7.2c-0.1-1-0.5-1.8-1.1-2.3
		c-0.6-0.6-1.5-0.8-2.5-0.8C154.8,26.7,154.2,26.8,153.7,27.2z"/>
	<path class="st1" d="M167.1,37.5c-1.1-0.6-1.9-1.4-2.5-2.4c-0.6-1.1-0.9-2.3-0.9-3.7c0-1.4,0.3-2.7,0.8-3.7c0.6-1,1.3-1.8,2.3-2.4
		c1-0.6,2.1-0.9,3.5-0.9c1.3,0,2.5,0.3,3.5,0.8c1,0.5,1.8,1.3,2.3,2.3c0.6,1,0.9,2.2,0.9,3.4c0,0.2,0,0.3,0,0.5c0,0.2,0,0.4-0.1,0.6
		h-10.2c0,0.1,0,0.1,0,0.1v0.1c0.1,0.8,0.2,1.5,0.5,2c0.3,0.6,0.8,1,1.3,1.3c0.6,0.3,1.2,0.5,1.9,0.5c0.9,0,1.6-0.2,2.2-0.6
		c0.6-0.4,1-1,1.2-1.8h2.9c-0.2,0.9-0.5,1.7-1.1,2.4c-0.6,0.7-1.3,1.3-2.1,1.7c-0.9,0.4-1.8,0.6-2.9,0.6
		C169.3,38.4,168.1,38.1,167.1,37.5z M168.8,27.2c-0.5,0.3-0.9,0.6-1.3,1.1c-0.3,0.5-0.6,1-0.6,1.6h7.2c-0.1-1-0.5-1.8-1.1-2.3
		c-0.6-0.6-1.5-0.8-2.5-0.8C169.8,26.7,169.3,26.8,168.8,27.2z"/>
	<path class="st0" d="M57.2,28.8c0,15.9-12.8,28.9-28.6,28.9c-6.8,0-13-2.4-17.9-6.4c-1.2-1-2.4-2.1-3.5-3.3C2.7,42.9,0,36.2,0,28.8
		C0,12.9,12.8,0,28.6,0C44.4,0,57.2,12.9,57.2,28.8z"/>
	<path class="st2" d="M40.9,16.4c2.6,0,4.8-2.2,4.8-4.8c0-2.7-2.1-4.8-4.8-4.8s-4.8,2.2-4.8,4.8C36.1,14.3,38.3,16.4,40.9,16.4z"/>
	<path d="M50.6,24.8L42,30c-0.3,0.2-0.6,0.3-1,0.3c-0.6,0-1.2-0.3-1.5-0.8l-3.8-6l-6.1,9.6l6.7,1.6c0.8,0.1,1.3,0.6,1.6,1.3
		c0.2,0.7,0.2,1.5-0.3,2.2l-7.7,12.2c-0.7,1-2,1.3-3,0.7c-1.1-0.6-1.5-2-0.9-3.2l6-9.5l-8.7-2L10.7,51.3c-1.2-1-2.4-2.1-3.5-3.3
		l13.3-15.9l9.2-14.3L24.4,15l-7.7,7c-0.7,0.7-1.8,0.6-2.5-0.1c-0.7-0.7-0.6-1.8,0.1-2.5l8.5-7.8c0.6-0.5,1.3-0.6,2-0.2l10.2,5.2
		c1.1,0.8,2.1,1.8,3.1,2.7l3.5,6.8l7.2-4.3c0.8-0.5,1.9-0.3,2.5,0.6C51.7,23.1,51.5,24.3,50.6,24.8z"/>
</g>
</svg>
